<svg width="29" height="29" viewBox="0 0 29 29" fill="none" xmlns="http://www.w3.org/2000/svg">
<g id="svgexport-6 (2)">
<g id="Group">
<path id="Vector" fill-rule="evenodd" clip-rule="evenodd" d="M21.5797 16.8804C21.4533 16.7539 21.2923 16.6677 21.1169 16.6327L16.8443 15.7772C16.698 15.7479 16.5467 15.7554 16.4039 15.7988C16.2612 15.8422 16.1314 15.9203 16.0262 16.0261C15.9204 16.1313 15.8423 16.2611 15.7989 16.4038C15.7555 16.5466 15.7481 16.6978 15.7773 16.8441L16.6328 21.1168C16.6678 21.292 16.7536 21.4527 16.8805 21.5796L21.2438 25.9429C21.4963 26.1954 21.796 26.3956 22.1258 26.5323C22.4557 26.6689 22.8092 26.7392 23.1663 26.7392C23.5233 26.7392 23.8768 26.6689 24.2067 26.5323C24.5365 26.3956 24.8363 26.1954 25.0887 25.9429L25.943 25.0886C26.4526 24.5786 26.7388 23.8871 26.7388 23.1661C26.7388 22.4452 26.4526 21.7537 25.943 21.2437L21.5797 16.8804Z" fill="#DDFE25"/>
<path id="Vector_2" fill-rule="evenodd" clip-rule="evenodd" d="M21.326 27.4895C20.9809 27.3063 20.6649 27.073 20.3883 26.7972L16.0262 22.4339C15.7308 22.1389 15.5294 21.763 15.4474 21.3536L14.5931 17.081C14.5255 16.7397 14.5431 16.3871 14.6442 16.0543C14.7453 15.7215 14.9269 15.4187 15.1728 15.1727C15.4188 14.9268 15.7216 14.7452 16.0544 14.6441C16.3872 14.543 16.7399 14.5254 17.0811 14.593L21.3537 15.4473C21.7622 15.5295 22.1392 15.73 22.434 16.0261L26.7973 20.3882C27.0752 20.6673 27.3084 20.9839 27.4897 21.3258V6.04163C27.4897 4.83986 27.0123 3.68732 26.1625 2.83755C25.3127 1.98777 24.1602 1.51038 22.9584 1.51038H6.04175C4.83999 1.51038 3.68744 1.98777 2.83767 2.83755C1.9879 3.68732 1.5105 4.83986 1.5105 6.04163V22.9583C1.5105 24.1601 1.9879 25.3126 2.83767 26.1624C3.68744 27.0121 4.83999 27.4895 6.04175 27.4895H21.326ZM7.25008 17.8229H12.0834C12.3238 17.8229 12.5543 17.7274 12.7242 17.5574C12.8942 17.3875 12.9897 17.157 12.9897 16.9166C12.9897 16.6763 12.8942 16.4458 12.7242 16.2758C12.5543 16.1059 12.3238 16.0104 12.0834 16.0104H7.25008C7.00973 16.0104 6.77922 16.1059 6.60927 16.2758C6.43931 16.4458 6.34383 16.6763 6.34383 16.9166C6.34383 17.157 6.43931 17.3875 6.60927 17.5574C6.77922 17.7274 7.00973 17.8229 7.25008 17.8229ZM17.5209 12.9895H20.5417C20.7821 12.9895 21.0126 12.8941 21.1826 12.7241C21.3525 12.5542 21.448 12.3236 21.448 12.0833C21.448 11.8429 21.3525 11.6124 21.1826 11.4425C21.0126 11.2725 20.7821 11.177 20.5417 11.177H17.5209C17.2806 11.177 17.0501 11.2725 16.8801 11.4425C16.7101 11.6124 16.6147 11.8429 16.6147 12.0833C16.6147 12.3236 16.7101 12.5542 16.8801 12.7241C17.0501 12.8941 17.2806 12.9895 17.5209 12.9895ZM7.25008 12.9895H13.8959C14.1363 12.9895 14.3668 12.8941 14.5367 12.7241C14.7067 12.5542 14.8022 12.3236 14.8022 12.0833C14.8022 11.8429 14.7067 11.6124 14.5367 11.4425C14.3668 11.2725 14.1363 11.177 13.8959 11.177H7.25008C7.00973 11.177 6.77922 11.2725 6.60927 11.4425C6.43931 11.6124 6.34383 11.8429 6.34383 12.0833C6.34383 12.3236 6.43931 12.5542 6.60927 12.7241C6.77922 12.8941 7.00973 12.9895 7.25008 12.9895ZM7.25008 8.15621H20.5417C20.7821 8.15621 21.0126 8.06073 21.1826 7.89077C21.3525 7.72082 21.448 7.49031 21.448 7.24996C21.448 7.00961 21.3525 6.7791 21.1826 6.60914C21.0126 6.43919 20.7821 6.34371 20.5417 6.34371H7.25008C7.00973 6.34371 6.77922 6.43919 6.60927 6.60914C6.43931 6.7791 6.34383 7.00961 6.34383 7.24996C6.34383 7.49031 6.43931 7.72082 6.60927 7.89077C6.77922 8.06073 7.00973 8.15621 7.25008 8.15621Z" fill="#DDFE25"/>
</g>
</g>
</svg>
