<svg width="38" height="38" viewBox="0 0 38 38" fill="none" xmlns="http://www.w3.org/2000/svg">
<g id="svgexport-6 (3)" clip-path="url(#clip0_44_2480)">
<g id="Group">
<path id="Vector" fill-rule="evenodd" clip-rule="evenodd" d="M10.4319 19.0063C9.9215 18.5339 9.26192 18.3045 8.59821 18.3686C7.93451 18.4326 7.32106 18.7849 6.89281 19.3478L4.58608 22.3801C4.15783 22.943 3.94986 23.6706 4.00793 24.4026C4.066 25.1347 4.38534 25.8114 4.89571 26.2837L11.4934 32.3902C12.5557 33.3733 14.1403 33.2216 15.0325 32.0487L17.3392 29.0164C17.7675 28.4535 17.9755 27.7259 17.9174 26.9939C17.8593 26.2618 17.54 25.5851 17.0296 25.1128L10.4319 19.0063ZM21.0428 5.0579C20.5325 4.58554 19.8729 4.35615 19.2092 4.4202C18.5455 4.48425 17.932 4.83648 17.5038 5.39943L15.1971 8.43169C14.7688 8.99463 14.5608 9.72216 14.6189 10.4542C14.677 11.1863 14.9963 11.863 15.5067 12.3353L22.1044 18.4418C23.1667 19.425 24.7512 19.2732 25.6435 18.1003L27.9502 15.068C28.3785 14.5051 28.5864 13.7775 28.5284 13.0455C28.4703 12.3134 28.151 11.6368 27.6406 11.1644L21.0428 5.0579ZM22.6038 5.4692L27.0023 9.54019C27.221 9.74263 27.5037 9.84094 27.7882 9.81349C28.0726 9.78604 28.3355 9.63508 28.519 9.39382C28.7026 9.15256 28.7917 8.84076 28.7668 8.52701C28.7419 8.21326 28.6051 7.92327 28.3864 7.72083L23.9879 3.64984C23.7691 3.4474 23.4864 3.34909 23.202 3.37654C22.9176 3.40399 22.6547 3.55495 22.4711 3.79621C22.2876 4.03747 22.1985 4.34927 22.2233 4.66302C22.2482 4.97676 22.3851 5.26676 22.6038 5.4692ZM4.14994 29.7273L8.54844 33.7983C8.76717 34.0007 9.04984 34.099 9.33429 34.0716C9.61873 34.0441 9.88164 33.8932 10.0652 33.6519C10.2487 33.4106 10.3378 33.0988 10.313 32.7851C10.2881 32.4713 10.1512 32.1813 9.93248 31.9789L5.53398 27.9079C5.31525 27.7055 5.03257 27.6072 4.74813 27.6346C4.46369 27.6621 4.20078 27.813 4.01724 28.0543C3.83371 28.2955 3.74458 28.6073 3.76947 28.9211C3.79435 29.2348 3.93121 29.5248 4.14994 29.7273ZM12.1793 18.5567L15.4087 14.3115L20.357 18.8914L17.1276 23.1366L12.1793 18.5567Z" fill="#DDFE25"/>
</g>
</g>
<defs>
<clipPath id="clip0_44_2480">
<rect width="36.5754" height="35.9598" fill="white" transform="matrix(0.605452 -0.795882 0.733901 0.679256 -7.99976 21.0659)"/>
</clipPath>
</defs>
</svg>
