<svg width="33" height="33" viewBox="0 0 33 33" fill="none" xmlns="http://www.w3.org/2000/svg">
<g id="svgexport-21 (1)">
<g id="Group">
<path id="Vector" fill-rule="evenodd" clip-rule="evenodd" d="M31.5627 5.78125C31.5627 4.77888 31.164 3.81638 30.4559 3.10688C29.7461 2.39847 28.7843 2.00042 27.7815 2H5.78149C4.77912 2 3.81662 2.39875 3.10712 3.10688C2.39871 3.81668 2.00067 4.77842 2.00024 5.78125V20.9063C2.00024 21.9086 2.39899 22.8711 3.10712 23.5806C3.81692 24.289 4.77867 24.6871 5.78149 24.6875H12.1409L15.9565 29.775C16.0526 29.9031 16.1771 30.007 16.3203 30.0786C16.4635 30.1502 16.6214 30.1875 16.7815 30.1875C16.9416 30.1875 17.0995 30.1502 17.2427 30.0786C17.3859 30.007 17.5104 29.9031 17.6065 29.775L21.4221 24.6875H27.7815C28.7839 24.6875 29.7464 24.2888 30.4559 23.5806C31.1643 22.8708 31.5623 21.9091 31.5627 20.9063V5.78125ZM8.94949 13.7851C7.92775 14.6878 7.2504 15.9166 7.03274 17.2625C7.00354 17.5041 7.02598 17.7491 7.09856 17.9814C7.17115 18.2137 7.29223 18.4279 7.45381 18.6099C7.61538 18.7919 7.81375 18.9375 8.0358 19.037C8.25785 19.1366 8.49852 19.1879 8.74187 19.1875C10.5294 19.1875 15.1384 19.1875 16.9272 19.1683C17.1702 19.1673 17.4102 19.1141 17.6309 19.0123C17.8515 18.9105 18.0477 18.7625 18.2062 18.5782C18.3646 18.394 18.4816 18.1778 18.5491 17.9444C18.6167 17.711 18.6333 17.4658 18.5979 17.2254C18.3829 15.8951 17.7144 14.6802 16.7059 13.7865C16.2592 14.3957 15.6753 14.8911 15.0014 15.2325C14.3276 15.5739 13.5827 15.7518 12.8273 15.7516C12.0719 15.7515 11.3272 15.5734 10.6534 15.2317C9.97971 14.8901 9.39596 14.3945 8.94949 13.7851ZM23.8284 12.3125V10.5938C23.8284 10.3202 23.7197 10.0579 23.5263 9.86455C23.3329 9.67115 23.0706 9.5625 22.7971 9.5625C22.5236 9.5625 22.2613 9.67115 22.0679 9.86455C21.8745 10.0579 21.7659 10.3202 21.7659 10.5938V12.3125H20.0471C19.7736 12.3125 19.5113 12.4212 19.3179 12.6145C19.1245 12.8079 19.0159 13.0702 19.0159 13.3438C19.0159 13.6173 19.1245 13.8796 19.3179 14.073C19.5113 14.2664 19.7736 14.375 20.0471 14.375H21.7659V16.0938C21.7659 16.3673 21.8745 16.6296 22.0679 16.823C22.2613 17.0164 22.5236 17.125 22.7971 17.125C23.0706 17.125 23.3329 17.0164 23.5263 16.823C23.7197 16.6296 23.8284 16.3673 23.8284 16.0938V14.375H25.5471C25.8206 14.375 26.0829 14.2664 26.2763 14.073C26.4697 13.8796 26.5784 13.6173 26.5784 13.3438C26.5784 13.0702 26.4697 12.8079 26.2763 12.6145C26.0829 12.4212 25.8206 12.3125 25.5471 12.3125H23.8284ZM12.8284 7.5C11.9167 7.5 11.0423 7.86216 10.3977 8.50682C9.75303 9.15148 9.39087 10.0258 9.39087 10.9375C9.39087 11.8492 9.75303 12.7235 10.3977 13.3682C11.0423 14.0128 11.9167 14.375 12.8284 14.375C13.7401 14.375 14.6144 14.0128 15.259 13.3682C15.9037 12.7235 16.2659 11.8492 16.2659 10.9375C16.2659 10.0258 15.9037 9.15148 15.259 8.50682C14.6144 7.86216 13.7401 7.5 12.8284 7.5Z" fill="#DDFE25"/>
</g>
</g>
</svg>
