<svg width="33" height="38" viewBox="0 0 33 38" fill="none" xmlns="http://www.w3.org/2000/svg">
<g id="svgexport-6 (4)">
<g id="Group">
<path id="Vector" fill-rule="evenodd" clip-rule="evenodd" d="M31.2814 28.8957C31.2814 28.161 31.0284 27.4565 30.576 26.9371C30.3529 26.6795 30.0877 26.4751 29.7959 26.3358C29.504 26.1964 29.1911 26.1247 28.8751 26.1249H4.12512C3.48712 26.1249 2.87525 26.4162 2.42425 26.9371C2.20053 27.1941 2.02305 27.4994 1.90201 27.8355C1.78097 28.1716 1.71873 28.5319 1.71887 28.8957V29.6874C1.71887 30.422 1.97187 31.1266 2.42425 31.646C2.87525 32.1669 3.48712 32.4582 4.12512 32.4582H28.8751C29.5131 32.4582 30.125 32.1669 30.576 31.646C31.0284 31.1266 31.2814 30.422 31.2814 29.6874V28.8957Z" fill="#DDFE25"/>
<path id="Vector_2" d="M9.62512 15.8332C12.0931 15.8332 14.0939 13.5293 14.0939 10.6873C14.0939 7.84537 12.0931 5.5415 9.62512 5.5415C7.1571 5.5415 5.15637 7.84537 5.15637 10.6873C5.15637 13.5293 7.1571 15.8332 9.62512 15.8332Z" fill="#DDFE25"/>
<path id="Vector_3" fill-rule="evenodd" clip-rule="evenodd" d="M3.47058 24.6065C3.68673 24.5633 3.9057 24.5416 4.12508 24.5415H16.4575L15.8373 20.2634C15.6902 19.2468 15.2348 18.3233 14.552 17.6571C13.8692 16.9909 13.0033 16.6251 12.1083 16.6249H7.82933C6.93437 16.6251 6.06848 16.9909 5.38568 17.6571C4.70288 18.3233 4.24743 19.2468 4.10033 20.2634L3.47058 24.6065ZM18.2188 24.5415H28.8751C29.2271 24.5415 29.5736 24.5985 29.9063 24.7062V17.8124C29.9063 17.4974 29.7977 17.1954 29.6043 16.9727C29.4109 16.75 29.1486 16.6249 28.8751 16.6249H19.2501C18.9766 16.6249 18.7143 16.75 18.5209 16.9727C18.3275 17.1954 18.2188 17.4974 18.2188 17.8124V24.5415Z" fill="#DDFE25"/>
</g>
</g>
</svg>
